<svg width="277.434" height="342.333" viewBox="0 0 100 123.392" xmlns="http://www.w3.org/2000/svg">
  <defs>
    <linearGradient id="grad1" x1="0%" y1="0%" x2="100%" y2="0%">
      <stop offset="0%" style="stop-color:#8f3fff;stop-opacity:1" />
      <stop offset="100%" style="stop-color:#5f9fff;stop-opacity:1" />
    </linearGradient>
  </defs>
  <g transform="matrix(1.25,0,0,1.25,30,0)" fill="url(#grad1)">
    <path d="M0,16.024L15.976,32L32,15.976L16.024,0L0,16.024z M15.989,23.347l-7.336-7.336l14.694-0.022L15.989,23.347z"></path>
  </g>
  <g transform="matrix(4.1271,0,0,4.1271,-6.6447,40.066)" fill="url(#grad1)">
    <path d="M1.61 5.61 q0 -0.21 0.115 -0.335 t0.325 -0.125 l9.93 0 q0.22 0 0.34 0.13 t0.12 0.35 l0 2.48 q0 0.17 -0.12 0.325 t-0.35 0.155 l-6.48 0 l0 2.47 l5 0 q0.19 0 0.315 0.09 t0.125 0.3 l0 2.16 q0 0.14 -0.11 0.27 t-0.32 0.13 l-5.01 0 l0 2.55 l6.72 0 q0.45 0 0.45 0.46 l0 2.52 q0 0.1 -0.08 0.18 q-0.04 0.28 -0.41 0.28 l-10.12 0 q-0.2 0 -0.32 -0.105 t-0.12 -0.325 l0 -13.96 z M16.98 15.21 q0.17 0.14 0.435 0.375 t0.605 0.465 q0.51 0.34 1.01 0.53 t1.05 0.19 q0.51 0 0.855 -0.115 t0.545 -0.305 t0.285 -0.44 t0.085 -0.53 q0 -0.31 -0.235 -0.555 t-0.575 -0.435 t-0.71 -0.325 t-0.64 -0.225 q-1.2 -0.42 -2.1 -0.905 t-1.5 -1.08 t-0.9 -1.31 t-0.3 -1.595 q0 -0.93 0.375 -1.69 t1.07 -1.3 t1.675 -0.835 t2.19 -0.295 q0.91 0 1.745 0.205 t1.645 0.655 q0.34 0.2 0.645 0.415 t0.535 0.415 t0.365 0.38 t0.135 0.31 t-0.065 0.24 t-0.195 0.25 l-1.53 1.63 q-0.17 0.17 -0.34 0.17 q-0.14 0 -0.255 -0.08 t-0.255 -0.2 l-0.09 -0.08 q-0.2 -0.17 -0.445 -0.35 t-0.525 -0.325 t-0.59 -0.24 t-0.63 -0.095 q-0.33 0 -0.62 0.055 t-0.51 0.175 t-0.35 0.315 t-0.13 0.475 t0.14 0.485 t0.42 0.38 t0.695 0.33 t0.965 0.335 q1.06 0.35 1.955 0.735 t1.545 0.91 t1.015 1.255 t0.365 1.77 q0 1.1 -0.45 1.995 t-1.235 1.525 t-1.845 0.975 t-2.28 0.345 q-1.15 0 -2.26 -0.41 t-2.07 -1.1 q-0.4 -0.29 -0.675 -0.57 t-0.435 -0.45 l-0.03 -0.03 q-0.01 -0.02 -0.02 -0.025 t-0.02 -0.015 q-0.01 -0.02 -0.02 -0.025 t-0.02 -0.015 q-0.23 -0.25 -0.23 -0.4 q0 -0.17 0.23 -0.38 l1.73 -1.65 q0.21 -0.15 0.34 -0.15 q0.09 0 0.19 0.06 t0.24 0.18 z"></path>
  </g>
</svg>
